<svg width="19" height="19" viewBox="0 0 19 19" fill="none" xmlns="http://www.w3.org/2000/svg">
<path d="M13.98 12.3114C13.6552 12.121 13.256 12.125 12.9328 12.317L11.296 13.2922C10.9296 13.5106 10.472 13.485 10.136 13.2226C9.55516 12.769 8.61996 12.0058 7.80636 11.1922C6.99276 10.3786 6.22956 9.44338 5.77596 8.86258C5.51356 8.52658 5.48796 8.06898 5.70636 7.70258L6.68156 6.06578C6.87436 5.74258 6.87596 5.34018 6.68556 5.01538L4.28396 0.912977C4.05116 0.516178 3.58876 0.320977 3.14156 0.430577C2.70716 0.536177 2.14316 0.793777 1.55196 1.38578C-0.299242 3.23698 -1.28244 6.35938 5.67916 13.321C12.6408 20.2826 15.7624 19.3002 17.6144 17.4482C18.2072 16.8554 18.464 16.2906 18.5704 15.8554C18.6784 15.409 18.4864 14.9498 18.0904 14.7178C17.1016 14.1394 14.9688 12.8906 13.98 12.3114V12.3114Z" fill="#393939"/>
</svg>
