<svg width="22" height="22" viewBox="0 0 22 22" fill="none" xmlns="http://www.w3.org/2000/svg">
<path d="M18.68 0.919922H3.32004C1.99524 0.919922 0.920044 1.99512 0.920044 3.31992V18.6799C0.920044 20.0047 1.99524 21.0799 3.32004 21.0799H18.68C20.0048 21.0799 21.08 20.0047 21.08 18.6799V3.31992C21.08 1.99512 20.0048 0.919922 18.68 0.919922ZM16.76 8.11992H15.8C14.7728 8.11992 14.36 8.35992 14.36 9.07992V10.5199H16.76L16.28 12.9199H14.36V20.1199H11.96V12.9199H10.04V10.5199H11.96V9.07992C11.96 7.15992 12.92 5.71992 14.84 5.71992C16.232 5.71992 16.76 6.19992 16.76 6.19992V8.11992Z" fill="#8C8C8C"/>
</svg>
