<svg width="20" height="20" viewBox="0 0 20 20" fill="none" xmlns="http://www.w3.org/2000/svg">
<path d="M5.83207 0C2.61624 0 0.000366211 2.61829 0.000366211 5.83496V14.1683C0.000366211 17.3841 2.61866 20 5.83533 20H14.1687C17.3845 20 20.0004 17.3817 20.0004 14.165V5.83171C20.0004 2.61587 17.3821 0 14.1654 0H5.83207ZM15.8337 3.33333C16.2937 3.33333 16.667 3.70667 16.667 4.16667C16.667 4.62667 16.2937 5 15.8337 5C15.3737 5 15.0004 4.62667 15.0004 4.16667C15.0004 3.70667 15.3737 3.33333 15.8337 3.33333ZM10.0004 5C12.7579 5 15.0004 7.2425 15.0004 10C15.0004 12.7575 12.7579 15 10.0004 15C7.24287 15 5.00037 12.7575 5.00037 10C5.00037 7.2425 7.24287 5 10.0004 5ZM10.0004 6.66667C8.15942 6.66667 6.66703 8.15905 6.66703 10C6.66703 11.8409 8.15942 13.3333 10.0004 13.3333C11.8413 13.3333 13.3337 11.8409 13.3337 10C13.3337 8.15905 11.8413 6.66667 10.0004 6.66667Z" fill="#8C8C8C"/>
</svg>
